<svg id="Layer_1" data-name="Layer 1" xmlns="http://www.w3.org/2000/svg" viewBox="0 0 131.35 131.35"><title>Untitled-6</title><circle cx="65.67" cy="65.67" r="65.67" style="fill:#fff"/><path d="M63.91,38.87c-0.62.2-1,.32-1.31,0.42a1.28,1.28,0,0,0-1.12,1.66,1.85,1.85,0,0,1,0,.55c-0.38,4.07-.72,8.14-1.18,12.2A3.63,3.63,0,0,0,61.45,57a9.16,9.16,0,0,0,1.77,1.43,2.49,2.49,0,0,0,1.6.26c1.42-.31,1.79-0.07,1.92,1.41a21.38,21.38,0,0,1-.68,6.43c-0.47,2.17-.83,4.37-1.15,6.56a4.88,4.88,0,0,0,.29,1.65A5.16,5.16,0,0,1,65.53,76c-0.18,3.38-.42,6.76-0.61,10.14-0.27,5-.41,10.06-0.78,15.08-0.34,4.68-.93,9.35-1.36,14-0.09,1,.09,2,0.06,3,0,1.51.87,3.06-.22,4.57a1.53,1.53,0,0,0,.12,1.39,6.9,6.9,0,0,0,1.8,1.87,2.44,2.44,0,0,0,3.06-.32c0.91-.82,2.07-1.64,1.46-3.23a1.94,1.94,0,0,1,0-1.13,22.66,22.66,0,0,0,.93-3c0.36-2.9.5-5.83,0.85-8.74,0.44-3.66,1-7.31,1.5-11,0.3-2.29.48-4.61,0.84-6.89S74,87.26,74.48,85c0.2-1,.34-2.08.51-3.12a1.48,1.48,0,0,1,.3.81c0.39,2.87.65,5.76,1.2,8.6,0.47,2.43.86,4.8,0,7.21a2.13,2.13,0,0,0-.08.45,97,97,0,0,0,.14,20c0.09,1,.64,2,0.74,3a1.65,1.65,0,0,0,1.36,1.69,21.7,21.7,0,0,0,2.42.23,6.47,6.47,0,0,1,1.87.21,9.39,9.39,0,0,0,7.36-.05,2.5,2.5,0,0,0,.69-0.73,4.83,4.83,0,0,0-.74-0.6c-1.47-.79-3-1.52-4.43-2.34a1.86,1.86,0,0,1-.82-1c-0.26-1-.36-2.08-0.55-3.12a56.41,56.41,0,0,1-.09-17.05A22.4,22.4,0,0,0,85,96.74c0-4-.09-7.92-0.27-11.88S84.21,77,84,73.08a21.22,21.22,0,0,0,0-2.57c-0.72-3.8-1.73-7.58-.3-11.45a2,2,0,0,1,1.48-1.55c2.35-.47,2.64-1.74,2.34-3.68-0.27-1.71-.73-3.39-1-5.1-0.33-2.32-.59-4.66-0.76-7A2.86,2.86,0,0,0,83.9,39c-0.45-.18-0.91-0.35-1.36-0.54A27.78,27.78,0,0,1,79.37,37a2.7,2.7,0,0,1-1.08-1.45c-0.22-.7-0.43-1.19-1.23-1.06,0.59-1.52,1.15-3,1.73-4.45,0.05-.13.25-0.21,0.29-0.34,0.22-.62.75-1.38,0.56-1.85-0.45-1.13,0-2.2-.14-3.28a1.82,1.82,0,0,0,0-.36c-0.44-1.19-.64-2.64-2.11-3a6.8,6.8,0,0,0-5.28.85,3.19,3.19,0,0,0-1.53,2.39c-0.09.75-.11,1.52-0.17,2.28a2.49,2.49,0,0,1-.13.89,2.85,2.85,0,0,0,.32,2.91,2.61,2.61,0,0,1,.37.79c0.18,0.95.31,1.91,0.49,2.86a0.6,0.6,0,0,0,.3.41C73,35,73.26,36,73.53,37.15c0.41,1.73.72,1.77,2,.58a1.33,1.33,0,0,1,1-.38c0.76,0.6,1.72,1.06,1.9,2.19a45.51,45.51,0,0,1,.21,11.22c0,0.49-.16,1-0.24,1.45a9.08,9.08,0,0,1-.5-1.52c-1.15-3.15-2.25-6.32-3.54-9.41a48.7,48.7,0,0,0-2.8-5.34c-0.49-.86-0.93-0.86-1.72-0.28-0.28.2-.58,0.37-1.1,0.69,0.05-1.08.59-1.77,0.29-2.79a3.31,3.31,0,0,0-1.49-2.26l1.12-.61a3.22,3.22,0,0,1-1-.94,8,8,0,0,1-.35-2.45c0.08-1.91.28-3.82,0.46-5.73,0.08-.79-0.23-1-1-0.76-0.1,2-.21,3.9-0.31,5.84a5.88,5.88,0,0,1,0,1,8.24,8.24,0,0,1-.57,1.62,2.8,2.8,0,0,1-.8,1.14,1.18,1.18,0,0,0-.58,1.21,1.75,1.75,0,0,1-.28,1.16,2.41,2.41,0,0,0-.49,2.31c0.1,0.48.28,0.94,0.34,1.42a2.32,2.32,0,0,0,3,2.12c0.37-.08.75-0.12,1.19-0.19a2.63,2.63,0,0,1-.81,2.67,2,2,0,0,1-2.32.25C64.25,40.91,63.22,40.44,63.91,38.87Z" transform="translate(-9.52 -9.82)" style="fill:#fff"/><path d="M63.91,38.87c-0.7,1.57.34,2,1.27,2.53a2,2,0,0,0,2.32-.25,2.63,2.63,0,0,0,.81-2.67c-0.44.07-.81,0.12-1.19,0.19a2.32,2.32,0,0,1-3-2.12c-0.06-.48-0.24-0.94-0.34-1.42a2.41,2.41,0,0,1,.49-2.31,1.75,1.75,0,0,0,.28-1.16,1.18,1.18,0,0,1,.58-1.21,2.8,2.8,0,0,0,.8-1.14,8.24,8.24,0,0,0,.57-1.62,5.88,5.88,0,0,0,0-1c0.1-1.95.2-3.89,0.31-5.84,0.78-.23,1.08,0,1,0.76-0.18,1.91-.38,3.81-0.46,5.73a8,8,0,0,0,.35,2.45,3.22,3.22,0,0,0,1,.94l-1.12.61A3.31,3.31,0,0,1,69,33.57c0.31,1-.24,1.71-0.29,2.79,0.52-.32.82-0.49,1.1-0.69,0.8-.58,1.24-0.57,1.72.28a48.7,48.7,0,0,1,2.8,5.34c1.29,3.09,2.38,6.26,3.54,9.41a9.08,9.08,0,0,0,.5,1.52c0.08-.48.2-1,0.24-1.45a45.51,45.51,0,0,0-.21-11.22c-0.19-1.13-1.15-1.58-1.9-2.19a1.33,1.33,0,0,0-1,.38c-1.31,1.19-1.62,1.16-2-.58C73.26,36,73,35,71.72,34.61a0.6,0.6,0,0,1-.3-0.41c-0.18-1-.3-1.91-0.49-2.86a2.61,2.61,0,0,0-.37-0.79,2.85,2.85,0,0,1-.32-2.91,2.49,2.49,0,0,0,.13-0.89c0.06-.76.07-1.52,0.17-2.28a3.19,3.19,0,0,1,1.53-2.39,6.8,6.8,0,0,1,5.28-.85c1.48,0.34,1.67,1.79,2.11,3a1.82,1.82,0,0,1,0,.36c0.16,1.08-.31,2.15.14,3.28,0.19,0.47-.34,1.23-0.56,1.85,0,0.13-.24.21-0.29,0.34-0.58,1.46-1.14,2.93-1.73,4.45,0.8-.13,1,0.36,1.23,1.06A2.7,2.7,0,0,0,79.37,37a27.78,27.78,0,0,0,3.17,1.4C83,38.6,83.45,38.77,83.9,39a2.86,2.86,0,0,1,1.82,2.78c0.16,2.34.43,4.67,0.76,7,0.24,1.71.7,3.39,1,5.1,0.3,1.94,0,3.21-2.34,3.68a2,2,0,0,0-1.48,1.55c-1.43,3.87-.42,7.64.3,11.45a21.22,21.22,0,0,1,0,2.57c0.24,3.93.57,7.85,0.75,11.78S85,92.78,85,96.74a22.4,22.4,0,0,1-.61,2.47,56.41,56.41,0,0,0,.09,17.05c0.19,1,.29,2.1.55,3.12a1.86,1.86,0,0,0,.82,1c1.45,0.82,3,1.56,4.43,2.34a4.83,4.83,0,0,1,.74.6,2.5,2.5,0,0,1-.69.73,9.39,9.39,0,0,1-7.36.05,6.47,6.47,0,0,0-1.87-.21,21.7,21.7,0,0,1-2.42-.23A1.65,1.65,0,0,1,77.32,122c-0.1-1-.65-2-0.74-3a97,97,0,0,1-.14-20,2.13,2.13,0,0,1,.08-0.45c0.83-2.41.44-4.78,0-7.21-0.55-2.84-.81-5.73-1.2-8.6A1.48,1.48,0,0,0,75,81.9c-0.17,1-.31,2.09-0.51,3.12-0.44,2.24-1,4.47-1.34,6.72s-0.54,4.6-.84,6.89c-0.49,3.66-1.06,7.31-1.5,11-0.35,2.91-.49,5.84-0.85,8.74a22.66,22.66,0,0,1-.93,3,1.94,1.94,0,0,0,0,1.13c0.6,1.58-.56,2.4-1.46,3.23a2.44,2.44,0,0,1-3.06.32,6.9,6.9,0,0,1-1.8-1.87,1.53,1.53,0,0,1-.12-1.39c1.09-1.51.18-3.05,0.22-4.57,0-1-.16-2-0.06-3,0.43-4.68,1-9.34,1.36-14,0.37-5,.51-10.05.78-15.08,0.18-3.38.43-6.76,0.61-10.14a5.16,5.16,0,0,0-.33-1.26,4.88,4.88,0,0,1-.29-1.65c0.32-2.2.68-4.39,1.15-6.56a21.38,21.38,0,0,0,.68-6.43c-0.13-1.48-.49-1.72-1.92-1.41a2.49,2.49,0,0,1-1.6-.26A9.16,9.16,0,0,1,61.45,57a3.63,3.63,0,0,1-1.18-3.28c0.47-4.06.8-8.13,1.18-12.2a1.85,1.85,0,0,0,0-.55,1.28,1.28,0,0,1,1.12-1.66C62.95,39.19,63.29,39.07,63.91,38.87ZM69.46,57c1.73,0.34,2.24,0,2.38-1.52A6.09,6.09,0,0,0,71.78,54c-0.22-1.46-.38-1.55-2-1.26C70.12,54.15,70.46,55.59,69.46,57ZM83.31,45.15c-0.16-1.19-.73-1.5-2.56-1.56-0.26.77-.27,0.83,0.35,1S82.49,45,83.31,45.15Z" transform="translate(-9.52 -9.82)"/><path d="M69.46,57c1-1.36.66-2.81,0.31-4.24,1.62-.29,1.79-0.19,2,1.26a6.09,6.09,0,0,1,.06,1.46C71.7,56.94,71.19,57.29,69.46,57Z" transform="translate(-9.52 -9.82)" style="fill:#fff"/><path d="M83.31,45.15c-0.82-.19-1.53-0.32-2.22-0.54s-0.6-.25-0.35-1C82.58,43.64,83.15,44,83.31,45.15Z" transform="translate(-9.52 -9.82)" style="fill:#fff"/></svg>