<?xml version="1.0" encoding="utf-8"?>
<!-- Generator: Adobe Illustrator 19.2.1, SVG Export Plug-In . SVG Version: 6.00 Build 0)  -->
<svg version="1.1" id="OUTLINES" xmlns="http://www.w3.org/2000/svg" xmlns:xlink="http://www.w3.org/1999/xlink" x="0px" y="0px"
	 viewBox="0 0 81 40.5" style="enable-background:new 0 0 81 40.5;" xml:space="preserve">
<style type="text/css">
	.st0{fill:url(#SVGID_1_);}
	.st1{fill:#FFFFFF;}
</style>
<title>LVA</title>
<linearGradient id="SVGID_1_" gradientUnits="userSpaceOnUse" x1="393.59" y1="452.7685" x2="393.59" y2="419.1915" gradientTransform="matrix(1 0 0 1 -353.09 -415.74)">
	<stop  offset="0" style="stop-color:#005A83"/>
	<stop  offset="1" style="stop-color:#2098D4"/>
</linearGradient>
<path class="st0" d="M40.5,3.5C21.9,3.5,6.9,11,6.9,20.2S21.9,37,40.5,37s33.6-7.5,33.6-16.8S59,3.5,40.5,3.5z"/>
<path class="st1" d="M27.7,31.8h-0.3l1.2-2.7h0.3l1.2,2.7h-0.3l-0.3-0.7H28L27.7,31.8z M28.1,30.8h1.2l-0.6-1.5L28.1,30.8z"/>
<path class="st1" d="M33.9,31.4L33.9,31.4v-2.3h0.3v2.7h-0.3l-1.6-2.3l0,0v2.3H32v-2.7h0.3L33.9,31.4z"/>
<path class="st1" d="M36.4,31.8h-0.3l1.2-2.7h0.3l1.2,2.7h-0.3l-0.3-0.7h-1.4L36.4,31.8z M36.8,30.8H38l-0.6-1.5L36.8,30.8z"/>
<path class="st1" d="M40.7,29.1H41v1.2h1.5v-1.2h0.3v2.7h-0.3v-1.3H41v1.3h-0.3V29.1z"/>
<path class="st1" d="M45.3,31.6h1.5v0.2H45v-2.7h1.7v0.3h-1.4v0.9h1.3v0.2h-1.3L45.3,31.6L45.3,31.6z"/>
<path class="st1" d="M49.1,31.8h-0.3v-2.7h0.3V31.8z"/>
<path class="st1" d="M52.7,31.4L52.7,31.4l0.9-2.2H54v2.7h-0.3v-2.4l0,0l-1,2.4h-0.1l-1-2.4l0,0v2.4h-0.3v-2.7h0.4L52.7,31.4z"/>
<polygon class="st1" points="19.8,26.8 13.5,26.8 13.5,11.3 15.6,11.3 15.6,24.3 19.8,24.3 "/>
<polygon class="st1" points="47.6,26.8 45.9,26.8 45.9,17.9 47.6,14.5 "/>
<polygon class="st1" points="55.2,14.4 50.2,14.4 50.2,12.5 55.2,12.5 "/>
<polygon class="st1" points="57.6,26.8 50.6,19.2 50.6,26.8 48.9,26.8 48.9,14.5 55.9,22.1 55.9,14.5 57.6,14.5 "/>
<path class="st1" d="M47.1,12.7L40.5,26c-0.2,0.4-0.6,0.7-1.1,0.7h-3.7c-0.5,0-0.9-0.3-1.1-0.7L28,12.7v-2.6h0.7
	c0.5,0,0.9,0.3,1.1,0.7l0.4,0.8l6.4,12.5l0,0.1h2l0-0.1l6.6-13.4c0.2-0.4,0.7-0.7,1.1-0.7h0.7L47.1,12.7L47.1,12.7L47.1,12.7z"/>
<path class="st1" d="M37.5,19.8c-1.5,0-2.8-1.3-2.8-2.8c0-1.5,1.3-2.8,2.8-2.8s2.8,1.3,2.8,2.8l0,0l0,0
	C40.3,18.5,39.1,19.8,37.5,19.8"/>
<polygon class="st1" points="32,26.8 29.9,26.8 26.2,19 22.6,26.8 20.6,26.8 26.2,14.6 "/>
<polygon class="st1" points="69.8,26.8 67.7,26.8 64.1,19 60.4,26.8 58.4,26.8 64.1,14.6 "/>
</svg>
