<?xml version="1.0" encoding="utf-8"?>
<!-- Generator: Adobe Illustrator 19.2.1, SVG Export Plug-In . SVG Version: 6.00 Build 0)  -->
<svg version="1.1" id="Layer_1" xmlns="http://www.w3.org/2000/svg" xmlns:xlink="http://www.w3.org/1999/xlink" x="0px" y="0px"
	 viewBox="0 0 166 171.5" style="enable-background:new 0 0 166 171.5;" xml:space="preserve">
<style type="text/css">
	.st0{fill:#FEFEFE;}
	.st1{fill:#CCCCCC;}
	.st2{fill:#202020;}
</style>
<g>
	<g>
		<path class="st0" d="M0,88.4C0,61,0,33.6,0,6.2c0-0.6,0.1-0.7,0.7-0.7c54.9,0,109.7,0,164.6,0c0.6,0,0.7,0.1,0.7,0.7
			c0,54.9,0,109.7,0,164.6c0,0.6-0.1,0.7-0.7,0.7c-54.9,0-109.7,0-164.6,0c-0.6,0-0.7-0.1-0.7-0.7C0,143.3,0,115.9,0,88.4z M83,8.1
			L83,8.1c-25.6,0-51.2,0-76.8,0c-0.1,0-0.3,0-0.4,0C5.3,8,5.1,8.2,5.1,8.7c0,1.3,0,2.6,0,4c0,48.7,0,97.5,0,146.2
			c0,0.2,0,0.4,0,0.6c0.3,1.4,0.4,2.4,2.3,2.3c0.1,0,0.3,0,0.4,0c50.1,0,100.2,0,150.3,0c0.4,0,0.8,0,1.1,0c0.7-0.1,1.1-0.4,1.3-1
			s0.3-1.1,0.3-1.7c0-19.8,0-39.6,0-59.4c0-30.2,0-60.3,0-90.5c0-0.8-0.2-1-1-1C134.2,8.1,108.6,8.1,83,8.1z"/>
		<path class="st1" d="M83,8.1c25.6,0,51.2,0,76.9,0c0.8,0,1,0.2,1,1c0,30.2,0,60.3,0,90.5c0,19.8,0,39.6,0,59.4
			c0,0.6-0.1,1.2-0.3,1.7c-0.2,0.6-0.6,1-1.3,1c-0.4,0-0.8,0-1.1,0c-50.1,0-100.2,0-150.3,0c-0.1,0-0.3,0-0.4,0
			c-2,0.1-2.1-0.9-2.3-2.3c0-0.2,0-0.4,0-0.6c0-48.7,0-97.5,0-146.2c0-1.3,0.1-2.6,0-4c0-0.5,0.2-0.7,0.7-0.6C6,8,6.2,8,6.3,8
			C31.8,8.1,57.4,8.1,83,8.1L83,8.1z M83,153.4L83,153.4c23.4,0,46.9,0,70.3,0c1.1,0,1.1,0,1.1-1.1c0-45.5,0-91.1,0-136.6
			c0-1.3,0.2-1.1-1.1-1.1c-46.9,0-93.7,0-140.6,0c-0.8,0-1,0.2-1,1c0,45.6,0,91.1,0,136.7c0,1.3-0.1,1.1,1.1,1.1
			C36.2,153.4,59.6,153.4,83,153.4z"/>
		<path class="st2" d="M83,153.4c-23.4,0-46.8,0-70.2,0c-1.3,0-1.1,0.1-1.1-1.1c0-45.6,0-91.1,0-136.7c0-0.8,0.2-1,1-1
			c46.9,0,93.7,0,140.6,0c1.3,0,1.1-0.1,1.1,1.1c0,45.5,0,91.1,0,136.6c0,1.1,0,1.1-1.1,1.1C129.9,153.4,106.4,153.4,83,153.4
			L83,153.4z M86.8,50.7c0-1.2,0-2.4-0.2-3.6c-0.4-2.6-1.1-5.1-2.8-7.2c-1.7-2-3.9-2.8-6.4-2.5c-2.8,0.4-4.3,2.2-5.1,4.8
			c-1,3.4-0.9,6.8-0.4,10.3c0.8,5.7,2.5,11.2,4.9,16.5c0.2,0.5,0.2,0.9,0.1,1.5c-2.3,6.7-4.8,13.3-7.6,19.8
			c-1.7,3.9-3.6,7.7-5.5,11.6c-0.9,1.8-2,3.2-4,3.6c-0.4,0.1-0.7,0.3-1,0.4c-5.9,2.6-11.6,5.4-16.7,9.3c-2.2,1.7-4.4,3.6-5.7,6.1
			c-2,3.6-0.6,7.2,3.2,8.6c2.9,1.1,5.8,0.7,8.5-0.6c3.6-1.7,6.4-4.4,9-7.3c4.8-5.4,8.7-11.4,12.2-17.7c0.3-0.5,0.6-0.8,1.1-0.9
			c8.3-2.8,16.8-5.1,25.5-6.7c0.7-0.1,1.2,0,1.8,0.5c4.8,4.2,10.1,7.5,16.2,9.4c3.8,1.2,7.7,1.8,11.7,1c3-0.6,4.9-2.2,5.4-4.8
			c0.5-2.5-0.7-5-3.1-6.6c-0.9-0.6-1.9-1-2.9-1.4c-3-1.1-6.2-1.5-9.4-1.6c-2.5-0.1-5.1-0.1-7.6,0.1c-3,0.2-5.9,0.4-8.8,1
			c-1.2,0.2-2,0-2.9-0.9c-5.6-5.6-10.2-11.9-14-18.8c-0.1-0.3-0.1-0.4,0-0.7c0.6-2.2,1.3-4.3,1.9-6.5C85.4,62,86.6,56.5,86.8,50.7z"
			/>
		<path class="st0" d="M86.8,50.7c-0.1,5.7-1.3,11.3-2.9,16.8c-0.6,2.2-1.3,4.3-1.9,6.5c-0.1,0.2-0.1,0.4,0,0.7
			c3.9,6.9,8.5,13.2,14,18.8c0.9,0.9,1.7,1.1,2.9,0.9c2.9-0.6,5.9-0.8,8.8-1c2.5-0.2,5.1-0.2,7.6-0.1c3.2,0.1,6.3,0.5,9.4,1.6
			c1,0.4,2,0.8,2.9,1.4c2.5,1.6,3.6,4.1,3.1,6.6c-0.5,2.6-2.4,4.2-5.4,4.8c-4,0.7-7.9,0.1-11.7-1c-6.1-1.8-11.4-5.2-16.2-9.4
			c-0.6-0.5-1.1-0.6-1.8-0.5c-8.7,1.6-17.1,3.9-25.5,6.7c-0.5,0.2-0.9,0.4-1.1,0.9c-3.5,6.3-7.4,12.3-12.2,17.7
			c-2.6,2.9-5.5,5.5-9,7.3c-2.8,1.3-5.6,1.8-8.5,0.6c-3.8-1.5-5.1-5.1-3.2-8.6c1.4-2.5,3.5-4.4,5.7-6.1c5.1-3.9,10.9-6.7,16.7-9.3
			c0.3-0.2,0.7-0.4,1-0.4c2-0.5,3.1-1.8,4-3.6c1.9-3.8,3.8-7.7,5.5-11.6c2.9-6.5,5.3-13.1,7.6-19.8c0.2-0.5,0.2-0.9-0.1-1.5
			c-2.3-5.3-4.1-10.7-4.9-16.5c-0.5-3.4-0.6-6.9,0.4-10.3c0.8-2.6,2.3-4.4,5.1-4.8c2.5-0.3,4.7,0.5,6.4,2.5c1.8,2.1,2.5,4.6,2.8,7.2
			C86.7,48.3,86.8,49.5,86.8,50.7z M70.7,101.3c8.1-2.7,16-4.8,24.3-6.3c-5.5-5.5-10-11.6-13.9-18.2C78.2,85.1,75,93.3,70.7,101.3z
			 M60.5,107.2c-0.2-0.1-0.3,0-0.4,0c-4.4,1.9-8.7,3.9-12.8,6.4c-2.9,1.7-5.6,3.6-7.9,6.1c-0.9,1-1.7,2.1-2.1,3.4
			c-0.8,2.6,0.9,5,3.7,4.9c1.1,0,2-0.4,2.9-0.9c2-1.1,3.6-2.5,5.2-4.1c4.1-4.3,7.4-9.2,10.5-14.2C59.8,108.3,60.2,107.8,60.5,107.2z
			 M99.2,96.1c0,0.1,0,0.1,0,0.1c5,4.3,10.5,7.5,16.9,9c2.1,0.5,4.3,0.5,6.3-0.7c3.2-1.9,3.2-6.3,0-8.1c-1.2-0.7-2.4-1-3.8-1.2
			c-4.2-0.6-8.4-0.4-12.5-0.1C103.8,95.4,101.5,95.7,99.2,96.1z M77.8,67.1c0.5-1.8,1-3.4,1.4-4.9c0.6-2.1,1.1-4.2,1.6-6.4
			c0.7-3.3,1.2-6.5,1.3-9.9c0-1.5-0.2-3-0.8-4.4c-0.5-1.1-1.3-1.9-2.5-2.1c-1.8-0.4-3.4,0.4-4.3,2.2c-0.9,1.7-1.1,3.6-1.2,5.5
			c-0.1,3.5,0.4,6.9,1.2,10.3C75.3,60.7,76.4,63.8,77.8,67.1z"/>
		<path class="st2" d="M70.7,101.3c4.3-7.9,7.5-16.1,10.4-24.5C85,83.4,89.4,89.6,95,95C86.7,96.5,78.8,98.6,70.7,101.3z"/>
		<path class="st2" d="M60.5,107.2c-0.3,0.5-0.6,1.1-1,1.6c-3.1,5.1-6.4,9.9-10.5,14.2c-1.5,1.6-3.2,3.1-5.2,4.1
			c-0.9,0.5-1.9,0.9-2.9,0.9c-2.7,0.1-4.5-2.3-3.7-4.9c0.4-1.3,1.2-2.4,2.1-3.4c2.3-2.5,5-4.4,7.9-6.1c4.1-2.5,8.4-4.5,12.8-6.4
			C60.2,107.2,60.3,107.1,60.5,107.2z"/>
		<path class="st2" d="M99.2,96.1c2.3-0.5,4.6-0.8,6.9-0.9c4.2-0.3,8.4-0.4,12.5,0.1c1.3,0.2,2.6,0.5,3.8,1.2c3.2,1.9,3.2,6.3,0,8.1
			c-2,1.2-4.1,1.2-6.3,0.7c-6.4-1.5-11.9-4.8-16.9-9C99.2,96.3,99.2,96.2,99.2,96.1z"/>
		<path class="st2" d="M77.8,67.1c-1.4-3.3-2.5-6.4-3.3-9.7c-0.8-3.4-1.3-6.8-1.2-10.3c0.1-1.9,0.3-3.8,1.2-5.5
			c0.9-1.8,2.5-2.6,4.3-2.2c1.2,0.3,2,1.1,2.5,2.1c0.6,1.4,0.8,2.9,0.8,4.4c0,3.3-0.6,6.6-1.3,9.9c-0.4,2.1-1,4.3-1.6,6.4
			C78.7,63.7,78.3,65.3,77.8,67.1z"/>
	</g>
</g>
</svg>
