<?xml version="1.0" encoding="utf-8"?>
<!-- Generator: Adobe Illustrator 19.2.1, SVG Export Plug-In . SVG Version: 6.00 Build 0)  -->
<svg version="1.1" id="OUTLINES" xmlns="http://www.w3.org/2000/svg" xmlns:xlink="http://www.w3.org/1999/xlink" x="0px" y="0px"
	 viewBox="0 0 598 600" style="enable-background:new 0 0 598 600;" xml:space="preserve">
<style type="text/css">
	.st0{fill:url(#SVGID_1_);}
	.st1{fill:#FFFFFF;}
</style>
<title>LVA</title>
<linearGradient id="SVGID_1_" gradientUnits="userSpaceOnUse" x1="652.11" y1="909.18" x2="652.11" y2="666.3" gradientTransform="matrix(1 0 0 1 -353.09 -487.74)">
	<stop  offset="0" style="stop-color:#005A83"/>
	<stop  offset="1" style="stop-color:#2098D4"/>
</linearGradient>
<path class="st0" d="M298.9,178.6C164.7,178.6,56,232.9,56,300s108.7,121.4,242.9,121.4S542,367.1,542,300S433.1,178.6,298.9,178.6z
	"/>
<path class="st1" d="M206.7,383.8h-2.2l8.5-19.7h1.9l8.5,19.7h-2.2l-2.2-5.2h-10.1L206.7,383.8z M209.6,376.6h8.4l-4.3-10.7
	L209.6,376.6z"/>
<path class="st1" d="M251.4,380.9L251.4,380.9v-16.7h2.1v19.7H251l-11.5-16.9l0,0v16.9h-2v-19.7h2.5L251.4,380.9z"/>
<path class="st1" d="M269.7,383.8h-2.2l8.5-19.7h2l8.5,19.7H284l-2.2-5.2H272L269.7,383.8z M272.6,376.6h8.6l-4.3-10.7L272.6,376.6z
	"/>
<path class="st1" d="M300.4,364.1h2v8.5h10.7v-8.5h2v19.7h-2v-9.3h-10.7v9.3h-2V364.1z"/>
<path class="st1" d="M333.5,382H344v1.8h-12.5v-19.7h12v2h-10.2v6.8h9.5v1.7h-9.5v7.6L333.5,382z"/>
<path class="st1" d="M361.1,383.8h-2v-19.7h2V383.8z"/>
<path class="st1" d="M387.1,380.4L387.1,380.4l6.6-16.3h3.1v19.7h-2v-17.1l0,0l-7.1,17.1h-1.1l-7.1-17.1l0,0v17.1h-2v-19.7h3.1
	L387.1,380.4z"/>
<polygon class="st1" points="149.3,347.1 103.7,347.1 103.7,235.3 119,235.3 119,329.3 149.3,329.3 "/>
<polygon class="st1" points="350,347.1 338,347.1 338,283.3 350,258.6 "/>
<polygon class="st1" points="405.6,257.6 368.9,257.6 369,243.7 405.6,243.7 "/>
<polygon class="st1" points="422.7,347.2 371.9,292.7 371.9,347.1 359.9,347.1 359.9,258.6 410.6,313.3 410.6,258.6 422.7,258.6 "/>
<path class="st1" d="M347,245.5l-48,96.4c-1.5,3-4.6,4.9-7.9,4.9h-26.5c-3.4,0-6.4-1.9-7.9-4.9l-48-96.4v-19h4.9
	c3.4,0,6.4,1.9,7.9,4.9l3.1,6l46,90.6l0.4,0.7h14.8l0.4-0.8l48-96.6c1.6-3.1,4.8-5,8.2-4.9h4.9v18.8l0,0L347,245.5z"/>
<path class="st1" d="M277.5,296.6c-11.2,0-20.2-9.1-20.2-20.2c0-11.2,9.1-20.2,20.2-20.2c11.2,0,20.2,9.1,20.2,20.2l0,0l0,0
	C297.7,287.5,288.6,296.6,277.5,296.6"/>
<polygon class="st1" points="237.5,347.1 222.5,347.1 195.9,290.8 169.6,347.1 154.7,347.1 195.9,259.3 "/>
<polygon class="st1" points="511.1,347.1 496.1,347.1 469.5,290.8 443.2,347.1 428.3,347.1 469.5,259.3 "/>
</svg>
